<svg id="レイヤー_1" data-name="レイヤー 1" xmlns="http://www.w3.org/2000/svg" viewBox="0 0 563.46 419.64"><defs><style>.cls-1{fill:#040000;fill-rule:evenodd;}.cls-2{font-size:83.43px;letter-spacing:0.1em;}.cls-2,.cls-6{fill:#231815;font-family:Futura-Medium, Futura;font-weight:500;}.cls-3{letter-spacing:0.03em;}.cls-4{letter-spacing:0.03em;}.cls-5{letter-spacing:0.1em;}.cls-6{font-size:41.09px;letter-spacing:0.1em;}.cls-7{letter-spacing:0.08em;}.cls-8{letter-spacing:0.08em;}.cls-9{letter-spacing:0.12em;}.cls-10{letter-spacing:0.1em;}</style></defs><polygon class="cls-1" points="232.48 105.75 232.48 52.51 215.95 62.11 215.95 115.29 232.48 105.75"/><polygon class="cls-1" points="330.98 105.75 330.98 52.51 347.51 62.11 347.51 115.29 330.98 105.75"/><path class="cls-1" d="M550.3,345.54H533.56v16.75H550.3Zm-41,41h16.75V369.79H509.31Zm41,0H533.56V369.79H550.3Zm-41-41h16.75v16.75H509.31Z" transform="translate(-248.08 -194)"/><path class="cls-1" d="M415.82,324.44a114,114,0,0,1,223.12-33L653.52,283a130.47,130.47,0,0,0-252.18,64.15l15.31-8.85a115.39,115.39,0,0,1-.83-13.86" transform="translate(-248.08 -194)"/><path class="cls-1" d="M425.53,370.54,464,348.31v46.44l16.53,9.61V338.77l49.25-28.43,49.24,28.43v65.59l16.54-9.61V348.31l38.49,22.23,14.33,8.27a129.09,129.09,0,0,0,6-15.64l-14.67-8.46L529.81,291.24,419.88,354.71l-14.66,8.46a129.09,129.09,0,0,0,6,15.64Z" transform="translate(-248.08 -194)"/><path class="cls-1" d="M529.81,438.43a113.92,113.92,0,0,1-96.87-53.9l-14.27,8.24a130.47,130.47,0,0,0,222.26,0c.68-1.1,1.35-2.21,2-3.32l-14.26-8.23c-.64,1.12-1.3,2.22-2,3.31a113.89,113.89,0,0,1-96.86,53.9" transform="translate(-248.08 -194)"/><text class="cls-2" transform="translate(0 353.11)">C<tspan class="cls-3" x="66.39" y="0">O</tspan><tspan class="cls-4" x="143.28" y="0">W</tspan><tspan class="cls-5" x="233.93" y="0">ORKED</tspan></text><text class="cls-6" transform="translate(85.68 407.78)">C<tspan class="cls-7" x="32.9" y="0">o</tspan><tspan class="cls-8" x="60.92" y="0">w</tspan><tspan x="96.08" y="0">o</tspan><tspan class="cls-9" x="124.89" y="0">r</tspan><tspan class="cls-10" x="144.98" y="0">king Space</tspan></text></svg>