<svg id="レイヤー_1" data-name="レイヤー 1" xmlns="http://www.w3.org/2000/svg" viewBox="0 0 120.9 23.2"><defs><style>.cls-1{fill:#595757;}</style></defs><path class="cls-1" d="M83.33,105.22l-.31.22.26,8.64-1.23,6.43-4.21,4.71.13.18,3.37-7.22.45-8.05L81.41,103l2.63.87.43.35Zm7.11.18-.33,7.31L90.5,120l-.11,2.29-1.14.73-.36-.34-.12-1.95.12-9.73-.25-6.14,0-1.23,2.1.51.33.39Zm8.07-.56-.33.4.23,8.53.07,9.8-.31,1.06-.91.28-.58-.35,0-1.72.07-10.79-.27-9.2,2.44.73.28.43Z" transform="translate(-77.84 -102.34)"/><path class="cls-1" d="M132.45,111.73l-1,.46-.33,4.28-1.63,5.82-4.9,2.8-.91-1.47L121.44,122l.15-.22,4.81,1.07,1.69-1.24,1.63-8.71.12-1.54-5,.21-1.17,1.57-.65-.63.09-.25.94-6.92.1-.5-5.42-.18-.2,4.28-.92,6.47-2.73,5.93-5.19,4-.15-.34,6-7.7,1.31-6.26.33-6.5-1.61.3H112.3l-.57-1H116l7.81-.09.81-.35.4-.54.53.36,1.17,1,.37.34-1.45.84-.72,5.29,4.52-.16.87-.64.41-.48.33.51,1.51.75.15.57Z" transform="translate(-77.84 -102.34)"/><path class="cls-1" d="M145,112.15l-1-.82-1.18-2.76-.06-.13,3,2.65Zm1.16,5.3-.22,2.61-.11,1.77.46,1.87-1,1.42-1-1.29.16-1.52.22-2-1.7-2.62-.06.11,1.68-.84,2.53-8.17.3.16Zm.58-11.07-1.14-1.14-1.15-2.17-.1-.09,3.19,2.33Zm9.88.57-3.78.06-.07,2.54,1.73-.2.5-.48.4-.23.4.28.68.7V110l-.71.58.14,5.67-.68.47-.49-.88h-2l.23,1.92,3.42,2.08-.79.75-1-.65-1.79-1.76,0,5.3,0,1.25-.76.85-.81-.72.31-1.64,0-4.94-4.14,4.54-.26-.28,4-6.6-1.5-.15-.77,1-.53-.62.27-4.81-.28-3,1.43,1.11h1.95l-.14-2.51-3.09.38-.39-1.21,3.44,0-.25-3.83,2.05.57.38.22-.94.76.11,2.33,1.26-.15.78-.63.32-.5.36.57,1.32.53.13.55Zm-6.93,3.11.06,5.11,1.9.17-.12-5.29Zm5,0-1.74.06-.27,5.2,2-.12Zm5.5,12.72h-.46l-5.3,1.74h-.09l4.6-3.82,1.34,1.35.29.38Zm5.25-17.89-3.81.06-2,3.6,3.25-.19.46-.55.32-.23.43.25.78.75.1.45-.83.51.13,2.82.18,7.7-.89,1.1-.48-1-4.36.29-1,.62-.36-.63-.16-1.46.2-8.76-.07-2.5,1.16.79.53-.17.69-3.46-3.14.25L156,104l4.28.13,2.46-.1.53-.79.59-.14.44.25,1.25.72.06.42ZM163,109.11l-4.25.06-.18,2.93,4.46-.17Zm0,3.57-4.24,0-.18,3.14,4.45-.17Zm0,3.76-4.24,0-.18,3.22,4.45-.16Zm1.7,8.66-.92-.86-2-2.8-.06-.1,3.89,2.67Z" transform="translate(-77.84 -102.34)"/><path class="cls-1" d="M186.49,105l-.08.49-.14,5.72.26,8.33v.57l-.35.63-.51.34-.75-.69.21-1.69-6.79.17-.17,2.59-.87.77-.41-.59-.07-4,.07-8.21-.17-6.59,2,1,6.24,0,.53-.6.26-.41.28.39,1.14.5.29.5Zm-5.42-.64-2.79,0-.13,6.47,3,0Zm0,7-2.79,0-.14,7,3,0Zm4-7-2.79,0-.13,6.47,3,0Zm0,7-2.79,0-.14,7,3,0Zm13.43-5.78-4.88-.08-.09,8.52.22,8.48-2.61,2.58L187.92,123l-.09-.27,2.69,0,1.95-2.86-.14-7.15.13-7.25-1.42.06-3.26.23-.76-1.09,4.38.09,4.21.36,1-1.27.29-.23.38.2,1.4,1.06.06.42Z" transform="translate(-77.84 -102.34)"/></svg>