<svg id="レイヤー_1" data-name="レイヤー 1" xmlns="http://www.w3.org/2000/svg" viewBox="0 0 580.9 598.99"><defs><style>.cls-1,.cls-2,.cls-7{fill:#fff;}.cls-2{font-size:173.19px;font-family:GillSans-SemiBold, Gill Sans;font-weight:600;letter-spacing:0.07em;}.cls-3{letter-spacing:0.06em;}.cls-4{letter-spacing:0.07em;}.cls-5{letter-spacing:0.05em;}.cls-6{letter-spacing:0.08em;}.cls-7{font-size:99.52px;font-family:MrsEavesAllPetiteCapsOT, Mrs Eaves;letter-spacing:0.07em;}.cls-8{letter-spacing:0.04em;}.cls-9{letter-spacing:0.07em;}.cls-10{letter-spacing:0.08em;}.cls-11{letter-spacing:0.06em;}.cls-12{letter-spacing:0.04em;}.cls-13{letter-spacing:0.09em;}.cls-14{letter-spacing:0.04em;}.cls-15{letter-spacing:0.08em;}</style></defs><path class="cls-1" d="M515.91,283.6V411.26H502.38V100h71.27c55.93,0,88.41,34.29,88.41,92,0,57.29-32,91.57-88.41,91.57Zm57.74-13.54c51,0,74.88-28.87,74.88-78,0-49.62-23.91-78.49-74.88-78.49H515.91V270.06Z" transform="translate(-219.1 -100)"/><path class="cls-1" d="M502.38,100v13.54H370.57V270.06H502.38V283.6H370.57V411.26H357V100Z" transform="translate(-219.1 -100)"/><text class="cls-2" transform="translate(0 504.51)">S<tspan class="cls-3" x="104.88" y="0">I</tspan><tspan class="cls-4" x="165.69" y="0">G</tspan><tspan class="cls-5" x="310.27" y="0">H</tspan><tspan class="cls-6" x="452.56" y="0">T</tspan></text><text class="cls-7" transform="translate(74.65 572.12)">P<tspan class="cls-8" x="44.89" y="0">O</tspan><tspan class="cls-9" x="98.73" y="0">R</tspan><tspan class="cls-10" x="147.7" y="0">T</tspan><tspan class="cls-11" x="196.06" y="0">F</tspan><tspan class="cls-12" x="241.13" y="0">O</tspan><tspan class="cls-13" x="294.97" y="0">L</tspan><tspan class="cls-14" x="341.99" y="0">I</tspan><tspan class="cls-15" x="374.57" y="0">O</tspan></text></svg>